<?xml version="1.0" encoding="UTF-8"?>
<svg id="Layer_1" data-name="Layer 1" xmlns="http://www.w3.org/2000/svg" viewBox="0 0 32 32">
  <defs>
    <style>
      .cls-1 {
        fill: #231f20;
        stroke-width: 0px;
      }
    </style>
  </defs>
  <path class="cls-1" d="M2.29,7.99c0-3.56,2.9-6.46,6.44-6.46s6.45,2.91,6.45,6.46-2.91,6.42-6.46,6.42-6.43-2.89-6.43-6.42ZM12.66,7.97c0-2.17-1.77-3.94-3.94-3.94s-3.92,1.77-3.92,3.94,1.76,3.91,3.92,3.91,3.94-1.76,3.94-3.91Z"/>
  <path class="cls-1" d="M21.94,8.89v12.7h-2.49v-5.4l-3.57,5.19h-.02l-3.57-5.19v5.4h-2.49v-12.7h.14l5.93,8.19,5.93-8.19h.14Z"/>
  <path class="cls-1" d="M16.82,7.99c0-3.56,2.9-6.46,6.44-6.46s6.45,2.91,6.45,6.46-2.91,6.42-6.46,6.42-6.43-2.89-6.43-6.42ZM27.19,7.97c0-2.17-1.77-3.94-3.94-3.94s-3.92,1.77-3.92,3.94,1.76,3.91,3.92,3.91,3.94-1.76,3.94-3.91Z"/>
  <path class="cls-1" d="M21.94,17.78l-6.03,12.7h-.09l-6.01-12.7h2.49l3.56,7.19,3.6-7.19h2.49Z"/>
</svg>